<svg width="616" height="473" viewBox="0 0 616 473" fill="none" xmlns="http://www.w3.org/2000/svg">
<path d="M337.276 184.441C341.94 188.238 346.084 192.7 349.001 197.959C356.26 211.044 360.638 227.84 361.826 238.236C363.722 254.836 365.424 259.781 359.456 277.417C356.327 286.662 351.125 295.047 345.953 303.324C339.14 314.227 333.437 324.08 312.225 337.126C299.199 345.137 283.867 349.043 269.262 353.577C250.967 359.256 227.929 365.297 203.83 348.243C189.733 338.268 185.271 302.075 210.309 259.174C235.347 216.273 237.976 219.13 276.753 187.864C306.01 170.355 317.208 168.107 337.276 184.441Z" fill="#D70908" fill-opacity="0.28"/>
<path d="M457.963 150.462C461.359 158.627 461.049 168.067 457.022 175.939C454.226 181.406 451.96 182.915 448.824 188.194C446.806 191.593 444.844 195.053 442.28 198.062C435.742 205.734 428.375 212.494 418.453 212.881C413.695 213.067 409.01 211.153 405.53 207.904C391.671 194.968 407.654 178.267 422.949 150.473C424.263 148.087 425.243 145.527 426.421 143.071C433.612 128.077 448.992 128.893 457.963 150.462Z" fill="#D70908" fill-opacity="0.55"/>
<path d="M245.368 193.689C243.843 198.993 247.504 199.617 250.861 198.057" stroke="#1F1F1F" stroke-width="1.6" stroke-linecap="round"/>
<path d="M4 385.87C42.1429 379.006 66.5544 366.527 99.2048 356.855C121.175 346.872 116.598 339.696 132.771 328.465C169.998 300.075 188.002 295.395 219.126 291.963C251.777 265.757 263.27 261.701 274.357 262.949C291.14 269.813 278.324 286.036 263.067 296.019C240.181 307.874 226.45 305.69 222.178 330.337C215.159 311.618 203.564 314.426 212.718 324.097C228.891 335.017 228.586 340.008 238.35 345.312C243.542 345.312 253.138 342.637 264.287 338.297M319.213 307.874C318.909 308.126 318.601 308.378 318.289 308.631M318.289 308.631C321.645 305.571 324.682 302.629 327.45 299.824M318.289 308.631C308.74 316.346 295.578 324.019 282.502 330.337M386.04 286.348C389.295 279.796 382.988 273.993 375.97 275.428C357.661 279.172 356.441 296.019 344.845 299.139C352.779 290.091 349.728 284.788 371.698 271.996C355.271 261.359 351.617 275.336 327.45 299.824M386.04 286.348C380.247 275.428 371.698 291.963 375.97 297.579M386.04 286.348L375.97 297.579M375.97 297.579C365.29 310.682 379.632 303.195 348.812 334.705C335.691 348.12 333.555 359.663 326.842 363.095C324.401 340.008 339.963 330.337 335.691 310.682C332.174 303.069 329.757 301.775 327.45 299.824M322.265 291.963C319.213 289.779 324.706 286.348 326.842 281.98M322.265 291.963C325.113 294.355 329.588 287.908 326.842 281.98M322.265 291.963C324.182 296.669 325.787 298.417 327.45 299.824M326.842 281.98C329.588 284.476 327.45 294.771 327.45 299.824M326.842 281.98C318.289 275.428 305.787 284.788 305.787 297.579C314.941 330.337 308.533 315.717 299.989 353.736M299.989 353.736C297.548 361.223 302.125 364.655 304.566 363.095C307.618 361.145 304.566 353.736 299.989 353.736ZM299.989 353.736C284.427 354.984 293.886 364.967 289.614 379.006C280.46 379.006 291.75 347.808 282.502 330.337M282.502 330.337C276.278 333.344 270.074 336.045 264.287 338.297M282.502 330.337C280.643 325.359 278.257 323.116 275.759 319.106M270.085 305.067C252.997 303.195 254.726 319.106 256.659 325.345C264.287 331.897 264.287 338.297 264.287 338.297M270.085 305.067C271.923 312.044 273.873 316.079 275.759 319.106M270.085 305.067C249.946 308.631 266.423 328.777 275.759 319.106M264.287 338.297C258.795 357.791 264.287 363.095 258.795 370.583C256.659 369.023 256.659 365.903 256.659 363.095C239.876 369.023 232.247 379.006 234.994 384.31C239.876 386.494 250.556 366.839 234.994 370.583C203.564 378.144 205.09 386.494 178.237 370.583C124.532 340.008 99.2048 372.767 92.1865 378.382" stroke="#1F1F1F" stroke-width="1.6" stroke-linecap="round"/>
<g filter="url(#filter0_d_183_174)">
<path d="M284.732 382.438C266.423 398.037 246.589 396.477 234.078 412.7C289.919 384.31 322.875 374.951 325.316 364.655C322.57 384.934 308.838 371.207 258.49 409.581C245.368 418.004 238.655 412.7 228.891 423.62H148.028C112.936 423.62 109.274 446.083 84.2527 441.715C68.0801 438.892 28.4114 462.306 4.61023 466.673" stroke="#1F1F1F" stroke-width="1.6" stroke-linecap="round"/>
</g>
<path d="M248.115 198.993C250.724 202.994 254.108 203.352 257.88 201.732M257.88 201.732C264.696 198.805 272.779 189.419 279.85 183.394C307.313 158.747 306.398 171.85 345.456 135.972C323.455 156.182 316.696 159.002 306.703 166.151M257.88 201.732C271.001 203.36 268.865 195.873 291.751 178.402C298.082 172.648 302.657 169.045 306.703 166.151M257.88 201.732C259.116 202.047 260.125 202.529 260.931 203.145M249.641 229.255C258.716 225.6 268.287 208.768 260.931 203.145M249.641 229.255C248.115 216.464 257.88 219.584 260.931 203.145M249.641 229.255C268.865 239.862 269.781 229.255 276.189 218.336C291.751 183.394 305.177 180.586 306.703 166.151M306.703 166.151C313.111 169.042 296.633 186.825 288.394 200.241L287.174 234.871C306.703 239.55 303.651 216.464 306.703 198.993C319.214 187.761 314.332 183.394 316.468 167.483C319.824 162.803 321.858 178.194 321.35 186.201V204.296C339.048 204.296 333.25 186.201 335.386 169.978C343.93 137.368 352.78 129.733 365.29 131.917C385.125 131.917 389.702 119.125 378.107 110.39C373.834 110.39 377.598 115.382 379.632 118.501C385.735 125.677 386.956 120.061 399.772 127.549C418.385 146.58 420.827 141.276 423.878 134.724C422.657 129.421 418.589 133.997 415.334 138.78C399.772 158.435 405.875 163.739 391.533 187.137C381.768 198.993 384.82 216.776 388.787 218.336M388.787 218.336C390.312 231.751 402.213 229.567 405.875 223.951C406.832 222.918 407.695 221.875 408.465 220.831M388.787 218.336C390.007 212.304 395.134 199.804 405.875 198.057M388.787 218.336C394.584 198.993 403.433 197.728 405.875 198.057M405.875 198.057C414.509 198.911 416.533 209.904 408.465 220.831M405.875 198.057C388.787 199.305 387.871 231.127 408.465 220.831" stroke="#1F1F1F" stroke-width="1.6" stroke-linecap="round"/>
<g filter="url(#filter1_d_183_174)">
<path d="M620.389 7.74791C533.485 12.2404 487.754 6.70797 475.751 3.38016C463.749 0.0523639 445.847 7.74791 437.914 16.1714C387.565 61.7208 353.287 84.0795 340.878 85.1194C333.86 85.7076 329.588 93.2309 328.062 97.2867C308.228 124.117 298.158 135.348 289.919 143.46C314.331 130.669 325.926 112.262 336.606 103.838M335.996 103.214C334.775 99.4706 316.161 125.989 289.919 147.828C273.137 161.794 278.324 162.179 261.236 179.65M261.236 179.65C257.88 176.218 242.622 194.313 241.097 201.489C260.321 196.185 265.813 183.394 261.236 179.65Z" stroke="#1F1F1F" stroke-width="1.6" stroke-linecap="round" shape-rendering="crispEdges"/>
</g>
<path d="M412.587 211.472C423.189 204.771 422.344 196.95 425.823 186.514M621 100.095C613.981 100.095 599.64 86.6794 517.556 79.1918C499.247 79.1918 484.295 72.0162 482.464 86.6794C465.987 132.541 480.634 139.404 439.439 165.299C434.234 170.547 430.93 175.304 428.696 179.65M425.823 186.514C424.182 177.778 409.535 173.202 409.535 177.778C411.671 181.834 417.774 177.778 425.823 186.514ZM425.823 186.514C426.863 183.394 427.456 182.06 428.696 179.65M428.696 179.65C427.767 176.876 423.86 174.354 422.616 172.483C421.285 170.482 425.558 170.406 427.111 172.24C429.181 174.683 429.604 177.883 428.696 179.65Z" stroke="#1F1F1F" stroke-width="1.6" stroke-linecap="round"/>
<defs>
<filter id="filter0_d_183_174" x="0.810059" y="363.471" width="328.299" height="109.003" filterUnits="userSpaceOnUse" color-interpolation-filters="sRGB">
<feFlood flood-opacity="0" result="BackgroundImageFix"/>
<feColorMatrix in="SourceAlpha" type="matrix" values="0 0 0 0 0 0 0 0 0 0 0 0 0 0 0 0 0 0 127 0" result="hardAlpha"/>
<feOffset dy="2"/>
<feGaussianBlur stdDeviation="1.5"/>
<feComposite in2="hardAlpha" operator="out"/>
<feColorMatrix type="matrix" values="0 0 0 0 0.843137 0 0 0 0 0.0352941 0 0 0 0 0.0313726 0 0 0 1 0"/>
<feBlend mode="normal" in2="BackgroundImageFix" result="effect1_dropShadow_183_174"/>
<feBlend mode="normal" in="SourceGraphic" in2="effect1_dropShadow_183_174" result="shape"/>
</filter>
<filter id="filter1_d_183_174" x="237.04" y="0.786865" width="387.149" height="206.823" filterUnits="userSpaceOnUse" color-interpolation-filters="sRGB">
<feFlood flood-opacity="0" result="BackgroundImageFix"/>
<feColorMatrix in="SourceAlpha" type="matrix" values="0 0 0 0 0 0 0 0 0 0 0 0 0 0 0 0 0 0 127 0" result="hardAlpha"/>
<feOffset dy="2"/>
<feGaussianBlur stdDeviation="1.5"/>
<feComposite in2="hardAlpha" operator="out"/>
<feColorMatrix type="matrix" values="0 0 0 0 0.843137 0 0 0 0 0.0352941 0 0 0 0 0.0313726 0 0 0 1 0"/>
<feBlend mode="normal" in2="BackgroundImageFix" result="effect1_dropShadow_183_174"/>
<feBlend mode="normal" in="SourceGraphic" in2="effect1_dropShadow_183_174" result="shape"/>
</filter>
</defs>
</svg>
