<svg width="573" height="434" viewBox="0 0 573 434" fill="none" xmlns="http://www.w3.org/2000/svg">
<path d="M264.412 168.631C259.719 172.391 255.57 176.874 252.709 182.163C246.281 194.044 242.399 209.032 241.332 218.376C239.638 233.2 238.114 237.874 243.108 253.075C246.155 262.347 251.36 270.75 256.524 279.032C262.311 288.314 267.68 296.876 285.093 307.897C298.014 316.075 313.34 320.12 327.97 324.573C344.408 329.576 364.76 334.151 386.012 319.112C398.921 309.977 403.007 276.835 380.079 237.549C357.151 198.264 354.743 200.88 319.235 172.25C292.736 156.391 282.415 154.204 264.412 168.631Z" fill="#D70908" fill-opacity="0.28"/>
<path d="M153.742 136.96C150.17 145.05 150.421 154.593 154.692 162.336C156.939 166.409 158.866 167.956 161.404 172.119C163.463 175.494 165.406 178.971 167.984 181.969C173.755 188.679 180.252 194.537 188.87 195.126C193.621 195.45 198.371 193.525 201.754 190.174C213.604 178.435 199.314 163.28 185.527 138.314C184.21 135.929 183.236 133.355 182.026 130.915C175.497 117.755 161.946 118.374 153.742 136.96Z" fill="#D70908" fill-opacity="0.55"/>
<path d="M347.974 177.583C349.371 182.44 346.018 183.012 342.945 181.583" stroke="#1F1F1F" stroke-width="1.6" stroke-linecap="round"/>
<path d="M569 353.567C534.072 347.282 511.718 335.855 481.819 326.998C461.7 317.856 465.892 311.285 451.082 301.001C416.992 275.003 400.506 270.718 372.004 267.575C342.106 243.577 331.581 239.863 321.428 241.006C306.06 247.291 317.796 262.147 331.767 271.289C352.724 282.145 365.298 280.145 369.21 302.715C375.637 285.573 386.255 288.145 377.872 297.001C363.063 307 363.342 311.571 354.4 316.428C349.646 316.428 340.859 313.978 330.649 310.004M280.352 282.145C280.631 282.376 280.913 282.607 281.199 282.838M281.199 282.838C278.125 280.036 275.344 277.341 272.81 274.773M281.199 282.838C289.943 289.903 301.995 296.929 313.97 302.715M219.158 262.433C216.177 256.433 221.952 251.119 228.379 252.433C245.145 255.862 246.262 271.289 256.881 274.146C249.615 265.861 252.41 261.004 232.291 249.291C247.334 239.55 250.679 252.349 272.81 274.773M219.158 262.433C224.462 252.433 232.291 267.575 228.379 272.717M219.158 262.433L228.379 272.717M228.379 272.717C238.159 284.716 225.026 277.86 253.248 306.714C265.263 318.999 267.219 329.569 273.367 332.712C275.602 311.571 261.351 302.715 265.263 284.716C268.484 277.744 270.698 276.56 272.81 274.773M277.558 267.575C280.352 265.575 275.323 262.433 273.367 258.433M277.558 267.575C274.95 269.765 270.852 263.861 273.367 258.433M277.558 267.575C275.802 271.884 274.332 273.485 272.81 274.773M273.367 258.433C270.852 260.718 272.81 270.146 272.81 274.773M273.367 258.433C281.199 252.433 292.647 261.004 292.647 272.717C284.264 302.715 290.132 289.327 297.956 324.141M297.956 324.141C300.192 330.998 296 334.14 293.765 332.712C290.971 330.926 293.765 324.141 297.956 324.141ZM297.956 324.141C312.207 325.284 303.545 334.426 307.457 347.282C315.84 347.282 305.501 318.713 313.97 302.715M313.97 302.715C319.669 305.468 325.351 307.941 330.649 310.004M313.97 302.715C315.672 298.156 317.856 296.103 320.145 292.43M325.34 279.574C340.988 277.86 339.404 292.43 337.635 298.144C330.649 304.143 330.649 310.004 330.649 310.004M325.34 279.574C323.657 285.964 321.871 289.658 320.145 292.43M325.34 279.574C343.782 282.838 328.693 301.286 320.145 292.43M330.649 310.004C335.679 327.855 330.649 332.712 335.679 339.569C337.635 338.14 337.635 335.283 337.635 332.712C353.003 338.14 359.989 347.282 357.474 352.139C353.003 354.139 343.223 336.14 357.474 339.569C386.255 346.492 384.858 354.139 409.447 339.569C458.627 311.571 481.819 341.568 488.246 346.711" stroke="#1F1F1F" stroke-width="1.6" stroke-linecap="round"/>
<g filter="url(#filter0_d_183_150)">
<path d="M311.928 350.425C328.693 364.709 346.856 363.281 358.313 378.137C307.178 352.139 277 343.568 274.764 334.141C277.279 352.71 289.853 340.14 335.959 375.28C347.974 382.993 354.121 378.137 363.063 388.136H437.111C469.245 388.136 472.598 408.705 495.511 404.706C510.321 402.121 546.646 423.561 568.441 427.561" stroke="#1F1F1F" stroke-width="1.6" stroke-linecap="round"/>
</g>
<path d="M345.458 182.44C343.069 186.104 339.97 186.432 336.516 184.949M336.516 184.949C330.275 182.268 322.873 173.673 316.398 168.156C291.249 145.586 292.088 157.585 256.321 124.731C276.467 143.237 282.657 145.82 291.808 152.366M336.516 184.949C324.501 186.44 326.457 179.583 305.5 163.585C299.702 158.316 295.513 155.016 291.808 152.366M336.516 184.949C335.385 185.237 334.46 185.678 333.722 186.243M344.061 210.152C335.751 206.805 326.986 191.392 333.722 186.243M344.061 210.152C345.458 198.439 336.516 201.296 333.722 186.243M344.061 210.152C326.457 219.865 325.619 210.152 319.751 200.153C305.5 168.156 293.205 165.585 291.808 152.366M291.808 152.366C285.94 155.014 301.029 171.298 308.574 183.583L309.691 215.294C291.808 219.58 294.602 198.439 291.808 182.44C280.352 172.155 284.822 168.156 282.866 153.586C279.793 149.3 277.93 163.394 278.396 170.727V187.297C262.189 187.297 267.498 170.727 265.542 155.871C257.718 126.009 249.615 119.017 238.158 121.017C219.995 121.017 215.804 109.304 226.422 101.305C230.334 101.305 226.888 105.876 225.025 108.733C219.437 115.303 218.319 110.161 206.583 117.018C189.538 134.445 187.303 129.588 184.508 123.588C185.626 118.732 189.352 122.922 192.332 127.302C206.583 145.301 200.994 150.157 214.128 171.584C223.069 182.44 220.275 198.724 216.642 200.153M216.642 200.153C215.245 212.438 204.348 210.438 200.994 205.295C200.118 204.349 199.328 203.394 198.622 202.438M216.642 200.153C215.525 194.63 210.83 183.183 200.994 181.583M216.642 200.153C211.333 182.44 203.23 181.282 200.994 181.583M200.994 181.583C193.087 182.366 191.234 192.432 198.622 202.438M200.994 181.583C216.642 182.726 217.481 211.866 198.622 202.438" stroke="#1F1F1F" stroke-width="1.6" stroke-linecap="round"/>
<g filter="url(#filter1_d_183_150)">
<path d="M4.55906 7.31295C84.1397 11.4269 126.016 6.36065 137.007 3.31331C147.998 0.265971 164.391 7.31295 171.656 15.0265C217.762 56.7371 249.15 77.2114 260.514 78.1637C266.941 78.7023 270.853 85.5916 272.25 89.3056C290.412 113.875 299.634 124.16 307.178 131.587C284.824 119.874 274.206 103.019 264.426 95.305M264.985 94.7337C266.102 91.3054 283.147 115.589 307.178 135.587C322.546 148.376 317.796 148.729 333.444 164.727M333.444 164.727C336.517 161.585 350.489 178.155 351.886 184.726C334.282 179.869 329.252 168.156 333.444 164.727Z" stroke="#1F1F1F" stroke-width="1.6" stroke-linecap="round" shape-rendering="crispEdges"/>
</g>
<path d="M194.848 193.867C185.14 187.731 185.913 180.569 182.728 171.012M3.99998 91.8766C10.4268 91.8766 23.5599 79.592 98.7256 72.7355C115.491 72.7355 129.183 66.1647 130.86 79.592C145.949 121.588 132.536 127.873 170.259 151.586C175.025 156.391 178.051 160.748 180.097 164.727M182.728 171.012C184.23 163.013 197.643 158.823 197.643 163.013C195.686 166.727 190.098 163.013 182.728 171.012ZM182.728 171.012C181.776 168.155 181.232 166.934 180.097 164.727M180.097 164.727C180.906 162.311 184.183 160.104 185.481 158.42C186.948 156.516 182.83 156.292 181.349 158.185C179.627 160.387 179.295 163.167 180.097 164.727Z" stroke="#1F1F1F" stroke-width="1.6" stroke-linecap="round"/>
<defs>
<filter id="filter0_d_183_150" x="270.971" y="332.956" width="301.27" height="100.405" filterUnits="userSpaceOnUse" color-interpolation-filters="sRGB">
<feFlood flood-opacity="0" result="BackgroundImageFix"/>
<feColorMatrix in="SourceAlpha" type="matrix" values="0 0 0 0 0 0 0 0 0 0 0 0 0 0 0 0 0 0 127 0" result="hardAlpha"/>
<feOffset dy="2"/>
<feGaussianBlur stdDeviation="1.5"/>
<feComposite in2="hardAlpha" operator="out"/>
<feColorMatrix type="matrix" values="0 0 0 0 0.843137 0 0 0 0 0.0352941 0 0 0 0 0.0313726 0 0 0 1 0"/>
<feBlend mode="normal" in2="BackgroundImageFix" result="effect1_dropShadow_183_150"/>
<feBlend mode="normal" in="SourceGraphic" in2="effect1_dropShadow_183_150" result="shape"/>
</filter>
<filter id="filter1_d_183_150" x="0.759033" y="0.786621" width="355.183" height="190.06" filterUnits="userSpaceOnUse" color-interpolation-filters="sRGB">
<feFlood flood-opacity="0" result="BackgroundImageFix"/>
<feColorMatrix in="SourceAlpha" type="matrix" values="0 0 0 0 0 0 0 0 0 0 0 0 0 0 0 0 0 0 127 0" result="hardAlpha"/>
<feOffset dy="2"/>
<feGaussianBlur stdDeviation="1.5"/>
<feComposite in2="hardAlpha" operator="out"/>
<feColorMatrix type="matrix" values="0 0 0 0 0.843137 0 0 0 0 0.0352941 0 0 0 0 0.0313726 0 0 0 1 0"/>
<feBlend mode="normal" in2="BackgroundImageFix" result="effect1_dropShadow_183_150"/>
<feBlend mode="normal" in="SourceGraphic" in2="effect1_dropShadow_183_150" result="shape"/>
</filter>
</defs>
</svg>
