<svg width="494" height="425" viewBox="0 0 494 425" fill="none" xmlns="http://www.w3.org/2000/svg">
<path d="M222.758 282.586C245.298 288.608 273.691 291.898 281.457 313.969C289.155 335.842 268.481 355.668 255.143 374.613C243.798 390.729 232.058 407.509 212.8 411.494C192.138 415.769 170.976 408.995 154.829 395.371C137.337 380.611 123.402 360.184 124.869 337.298C126.364 313.965 141.734 293.45 162.089 282.074C180.678 271.684 202.197 277.092 222.758 282.586Z" fill="#D70908" fill-opacity="0.65"/>
<g filter="url(#filter0_d_183_186)">
<path d="M386.075 133.413C386.075 145.758 397.446 149.981 407.192 149.981C430.907 149.981 436.755 153.88 446.176 160.377C464.369 172.924 472.816 163.301 474.765 153.555C474.765 133.413 477.039 131.464 483.537 118.794C493.533 99.3014 488.085 90.5299 480.938 82.0833" stroke="#3C3939" stroke-width="3.5"/>
</g>
<g filter="url(#filter1_d_183_186)">
<path d="M194.075 355.95C180.301 321.643 177.507 288.593 177.832 276.356C174.713 223.597 151.409 225.135 140.147 232.498C132.61 244.194 139.605 255.564 144.045 259.788C161.718 294.354 168.519 313.825 169.71 319.239C181.925 348.607 196.458 364.829 202.197 369.269L220.715 390.711L232.41 401.432C262.558 422.743 304.098 418.758 321.1 414.102M321.1 414.102L338.318 401.432L375.678 364.071L402.968 328.66L405.567 323.463M321.1 414.102C294.071 425.277 284.714 397.317 283.415 381.94L280.816 355.3C280.687 352.907 280.63 350.747 280.629 348.803M382.826 234.448C440.003 229.575 437.729 245.818 418.886 296.823L405.567 323.463M382.826 234.448C426.728 272.783 414.338 314.583 405.567 323.463M382.826 234.448C350.858 208.458 351.638 194.814 358.46 171.098C350.339 185.068 332.146 168.499 324.024 160.377C297.709 134.063 301.5 123.775 304.207 116.195C306.026 111.517 311.246 108.615 313.628 107.748C321.945 107.748 322.724 101.901 322.075 98.9767M280.629 348.803C280.626 335.117 282.765 332.256 282.765 333.394C285.039 326.572 290.562 323.138 292.511 322.488C280.485 314.946 282.327 307.711 286.346 303.321M280.629 348.803C288.055 348.803 304.662 348.543 311.679 347.503C317.418 346.745 331.691 340.356 342.866 320.864C345.79 318.481 346.635 311.832 326.623 304.295C318.609 300.505 300.048 294.419 289.912 300.397C288.721 301.121 287.451 302.113 286.346 303.321M280.629 348.803C257.908 348.803 249.628 343.605 248.329 341.006C239.233 332.689 236.525 328.877 236.309 328.011C234.749 326.971 232.627 322.163 231.76 319.889C224.483 311.313 244.322 304.404 255.151 302.021C268.146 298.383 281.362 301.371 286.346 303.321M322.075 98.9767C284.065 67.1393 287.963 45.3729 292.187 43.7485C297.125 37.511 302.258 36.8179 304.207 37.2511C311.744 38.5506 321.858 30.4289 325.973 26.2056C337.928 13.4706 354.562 24.5812 361.384 31.7284C362.684 5.73856 378.061 2.165 386.399 3.13961C407.971 14.835 436.754 12.3443 448.45 9.63702C465.083 9.63702 468.592 24.3646 468.267 31.7284C466.188 37.7059 472.598 49.3796 476.064 54.4693C487.434 65.19 483.969 78.9429 480.937 82.4082C470.801 73.5717 462.852 74.3947 460.145 75.9108C464.563 54.8591 435.455 38.2257 423.759 34.6521C412.064 31.0785 405.891 31.7284 401.993 34.6521C401.993 21.6573 389.215 25.7723 382.826 29.4542C368.856 42.449 363.658 44.7231 358.135 48.2967C347.48 54.5342 350.663 65.6232 353.587 70.3879C357.226 83.1229 354.237 93.6704 352.288 97.3523C348.862 108.828 349.011 116.043 350.131 120.093M322.075 98.9767L350.131 120.093M371.78 132.114C365.607 133.455 353.587 132.114 352.288 123.992C351.549 123.438 350.71 122.189 350.131 120.093M371.78 132.114C369.181 160.377 392.68 175.43 401.993 177.595C416.937 182.793 429.932 180.194 438.054 174.997C454.427 160.702 461.986 175.105 463.719 184.093C467.357 208.263 444.443 208.675 432.531 205.859C412.064 197.413 401.235 201.203 394.196 203.91C380.227 209.283 373.296 197.954 369.181 190.265C362.359 173.697 359.723 162.257 358.46 157.129C353.262 136.012 358.46 134.712 371.78 132.114ZM350.131 120.093L322.813 96.1308M322.724 96.0528L322.813 96.1308M322.813 96.1308C307.928 78.9152 315.902 67.789 322.075 61.6164C325.973 58.2378 329.547 56.4185 336.044 55.119C355.017 53.2997 360.843 44.3982 361.384 40.1749V32.378" stroke="#3C3939" stroke-width="3.5" shape-rendering="crispEdges"/>
</g>
<path d="M281.791 336.643L283.415 331.12" stroke="#3C3939" stroke-width="3"/>
<g filter="url(#filter2_d_183_186)">
<path d="M460.47 75.5858C458.845 95.7278 442.277 112.946 436.429 113.921C424.994 113.401 424.517 105.474 425.708 101.575C426.748 99.4963 430.04 95.9444 431.556 94.4283C444.291 85.5918 439.028 80.134 434.805 78.5096C414.533 76.1705 412.064 68.7635 412.064 63.5655C412.064 58.8874 415.529 57.5013 417.262 57.393C421.94 57.393 420.944 54.1443 419.861 52.5199C413.623 47.0621 407.515 50.2458 405.241 52.5199C401.603 58.4976 403.725 65.8397 405.241 68.7635C410.969 79.8092 421.485 83.0579 431.556 81.1086" stroke="#3C3939" stroke-width="3.5"/>
</g>
<path d="M231.76 319.889L291.211 321.513M291.211 321.513L343.516 321.049M291.211 321.513L344.49 319.1" stroke="#3C3939" stroke-width="3"/>
<g filter="url(#filter3_d_183_186)">
<path d="M390.296 71.3627C385.748 62.5912 383.929 44.0735 413.037 40.175C410.114 36.7097 400.367 35.3018 390.296 40.175C385.748 42.6657 374.832 51.6755 367.555 67.7891C360.517 80.8923 352.611 119.119 386.723 133.413C413.362 135.362 429.931 134.518 428.631 116.845C429.281 110.672 419.86 100.731 404.266 88.256C403.183 87.3897 398.873 82.7982 390.296 71.3627Z" stroke="#3C3939" stroke-width="3.5" shape-rendering="crispEdges"/>
</g>
<path d="M305.831 269.209C310.206 269.869 313.863 269.722 316.877 268.989M316.877 268.989C332.844 265.103 329.872 248.89 321.75 240.945C309.794 229.25 305.831 235.098 308.755 239.971C333.705 254.265 324.565 265.272 316.877 268.989Z" stroke="#3C3939" stroke-width="3.5"/>
<path d="M263.273 269.859C241.086 269.859 238.775 255.829 241.645 246.899C241.949 245.954 242.479 245.105 243.091 244.323C251.902 233.075 257.185 219.872 258.233 213.925C258.378 213.101 258.542 212.277 258.804 211.483C261.567 203.079 260.717 200.997 261.648 194.164V148.357C261.648 101.251 219.415 84.0327 191.151 81.7586C151.387 74.7414 140.146 79.4846 140.146 81.7586M140.146 81.7586C145.188 101.926 142.589 96.419 145.096 117.414C145.256 118.752 145.684 120.05 146.402 121.19C146.725 121.701 147.052 122.201 147.384 122.692M140.146 81.7586C115.781 34.9771 76.7966 22.9568 57.6291 30.7536C49.5074 34.0574 42.0353 40.1749 43.6597 48.9464M137.223 172.723C151.842 172.723 157.04 174.022 176.532 163.951C204.146 153.555 196.024 148.357 233.06 144.459L196.024 145.758C186.99 145.758 176.506 144.406 166.786 139.647M137.223 172.723C118.591 171.212 108.154 158.383 103.192 143.159M137.223 172.723C138.144 172.036 139.008 171.35 139.822 170.666M166.786 139.647C152.673 147.873 153.626 159.05 139.822 170.666M166.786 139.647C160.51 136.574 154.553 132.082 149.509 125.616M5 157.778C25.3101 133.719 27.5885 119.276 40.4511 113.005C41.4816 112.502 42.4589 111.891 43.3648 111.189C56.9367 100.662 90.2642 96.2809 99.9737 128.78C100.116 129.258 100.218 129.763 100.285 130.257C100.879 134.615 101.829 138.977 103.192 143.159M5 157.778C32.6141 153.555 31.9643 126.916 53.4058 122.692C76.7966 114.895 100.341 130.662 103.192 143.159M5 157.778C28.0822 159.359 36.0847 165.557 53.2695 158.398C54.2229 158.001 55.2356 157.74 56.2492 157.542C75.5626 153.765 83.1693 121.316 103.192 143.159M43.6597 48.9464C48.2079 25.2308 75.6054 35.9516 85.2432 43.4236C111.363 63.6741 110.657 87.6752 118.856 96.8361C119.377 97.419 119.899 98.0062 120.333 98.6568C126.964 108.588 129.356 111.676 147.384 122.692M43.6597 48.9464C44.8345 44.7231 48.2079 41.4022 57.6291 42.449C66.2981 43.4122 62.909 48.8179 70.3551 79.0505C70.5296 79.759 70.7811 80.4575 71.1222 81.1025C80.3287 98.5142 105.516 120.779 147.384 122.692M147.384 122.692C148.072 123.709 148.781 124.683 149.509 125.616M139.822 170.666C132.025 175.17 131.7 162.976 131.7 154.53L132.35 140.56C133.324 126.916 142.096 125.616 149.509 125.616" stroke="#3C3939" stroke-width="4"/>
<path d="M297.059 268.56C311.874 271.418 314.602 264.336 312.653 262.387C308.755 257.514 299.55 263.686 297.059 268.56ZM297.059 268.56C286.988 275.707 276.917 273.757 272.694 269.209M272.694 269.209C269.835 258.293 256.776 261.412 256.775 264.661C257.425 271.158 268.795 270.509 272.694 269.209Z" stroke="#3C3939" stroke-width="3.5"/>
<path d="M257.1 217.555C273.993 213.981 272.694 226.001 268.146 231.849C252.877 248.417 245.73 259.788 257.1 265.311" stroke="#3C3939" stroke-width="3.5"/>
<defs>
<filter id="filter0_d_183_186" x="381.325" y="79.9529" width="112.425" height="93.1526" filterUnits="userSpaceOnUse" color-interpolation-filters="sRGB">
<feFlood flood-opacity="0" result="BackgroundImageFix"/>
<feColorMatrix in="SourceAlpha" type="matrix" values="0 0 0 0 0 0 0 0 0 0 0 0 0 0 0 0 0 0 127 0" result="hardAlpha"/>
<feOffset dy="2"/>
<feGaussianBlur stdDeviation="1.5"/>
<feComposite in2="hardAlpha" operator="out"/>
<feColorMatrix type="matrix" values="0 0 0 0 0.843137 0 0 0 0 0.0352941 0 0 0 0 0.0313726 0 0 0 1 0"/>
<feBlend mode="normal" in2="BackgroundImageFix" result="effect1_dropShadow_183_186"/>
<feBlend mode="normal" in="SourceGraphic" in2="effect1_dropShadow_183_186" result="shape"/>
</filter>
<filter id="filter1_d_183_186" x="132.066" y="0.250488" width="356.598" height="424.293" filterUnits="userSpaceOnUse" color-interpolation-filters="sRGB">
<feFlood flood-opacity="0" result="BackgroundImageFix"/>
<feColorMatrix in="SourceAlpha" type="matrix" values="0 0 0 0 0 0 0 0 0 0 0 0 0 0 0 0 0 0 127 0" result="hardAlpha"/>
<feOffset dy="2"/>
<feGaussianBlur stdDeviation="1.5"/>
<feComposite in2="hardAlpha" operator="out"/>
<feColorMatrix type="matrix" values="0 0 0 0 0.843137 0 0 0 0 0.0352941 0 0 0 0 0.0313726 0 0 0 1 0"/>
<feBlend mode="normal" in2="BackgroundImageFix" result="effect1_dropShadow_183_186"/>
<feBlend mode="normal" in="SourceGraphic" in2="effect1_dropShadow_183_186" result="shape"/>
</filter>
<filter id="filter2_d_183_186" x="399.482" y="46.7563" width="64.7314" height="71.9209" filterUnits="userSpaceOnUse" color-interpolation-filters="sRGB">
<feFlood flood-opacity="0" result="BackgroundImageFix"/>
<feColorMatrix in="SourceAlpha" type="matrix" values="0 0 0 0 0 0 0 0 0 0 0 0 0 0 0 0 0 0 127 0" result="hardAlpha"/>
<feOffset dy="1"/>
<feGaussianBlur stdDeviation="1"/>
<feComposite in2="hardAlpha" operator="out"/>
<feColorMatrix type="matrix" values="0 0 0 0 0.843137 0 0 0 0 0.0352941 0 0 0 0 0.0313726 0 0 0 1 0"/>
<feBlend mode="normal" in2="BackgroundImageFix" result="effect1_dropShadow_183_186"/>
<feBlend mode="normal" in="SourceGraphic" in2="effect1_dropShadow_183_186" result="shape"/>
</filter>
<filter id="filter3_d_183_186" x="356.653" y="34.2761" width="76.799" height="106.619" filterUnits="userSpaceOnUse" color-interpolation-filters="sRGB">
<feFlood flood-opacity="0" result="BackgroundImageFix"/>
<feColorMatrix in="SourceAlpha" type="matrix" values="0 0 0 0 0 0 0 0 0 0 0 0 0 0 0 0 0 0 127 0" result="hardAlpha"/>
<feOffset dy="2"/>
<feGaussianBlur stdDeviation="1.5"/>
<feComposite in2="hardAlpha" operator="out"/>
<feColorMatrix type="matrix" values="0 0 0 0 0.843137 0 0 0 0 0.0352941 0 0 0 0 0.0313726 0 0 0 1 0"/>
<feBlend mode="normal" in2="BackgroundImageFix" result="effect1_dropShadow_183_186"/>
<feBlend mode="normal" in="SourceGraphic" in2="effect1_dropShadow_183_186" result="shape"/>
</filter>
</defs>
</svg>
