<svg width="574" height="774" viewBox="0 0 574 774" fill="none" xmlns="http://www.w3.org/2000/svg">
<path d="M78.9764 517.824C120.481 528.914 172.762 534.972 187.064 575.613C201.237 615.889 163.17 652.396 138.61 687.282C117.718 716.958 96.1 747.855 60.6386 755.193C22.5923 763.066 -16.3745 750.593 -46.1071 725.505C-78.3161 698.327 -103.976 660.713 -101.276 618.571C-98.5226 575.606 -70.2202 537.831 -32.7387 516.882C1.48987 497.75 41.1159 507.708 78.9764 517.824Z" fill="#D70908" fill-opacity="0.65"/>
<g filter="url(#filter0_d_520_5)">
<path d="M379.705 243.14C379.705 265.872 400.643 273.649 418.589 273.649C462.259 273.649 473.026 280.828 490.375 292.792C523.875 315.895 539.428 298.176 543.017 280.229C543.017 243.14 547.205 239.551 559.169 216.221C577.576 180.328 567.544 164.176 554.383 148.623" stroke="#3C3939" stroke-width="3.5"/>
</g>
<g filter="url(#filter1_d_520_5)">
<path d="M26.1599 652.915C0.795672 589.744 -4.34896 528.886 -3.75075 506.353C-9.4935 409.204 -52.4053 412.035 -73.1433 425.595C-87.0218 447.13 -74.1403 468.068 -65.9647 475.844C-33.4218 539.494 -20.8992 575.347 -18.7057 585.317C3.78704 639.396 30.5471 669.266 41.1155 677.442L75.2136 716.924L96.7493 736.665C152.263 775.908 228.755 768.57 260.061 759.995M260.061 759.995L291.767 736.665L360.561 667.871L410.811 602.665L415.596 593.095M260.061 759.995C210.29 780.574 193.061 729.088 190.669 700.773L185.883 651.719C185.645 647.313 185.54 643.336 185.539 639.755M373.722 429.184C479.007 420.211 474.82 450.122 440.123 544.041L415.596 593.095M373.722 429.184C454.563 499.774 431.748 576.744 415.596 593.095M373.722 429.184C314.858 381.327 316.293 356.203 328.856 312.533C313.9 338.256 280.401 307.747 265.445 292.792C216.99 244.337 223.969 225.393 228.954 211.435C232.304 202.821 241.916 197.477 246.302 195.882C261.617 195.882 263.052 185.114 261.856 179.73M185.539 639.755C185.532 614.555 189.472 609.287 189.472 611.382C193.66 598.82 203.829 592.496 207.419 591.3C185.274 577.413 188.666 564.089 196.065 556.005M185.539 639.755C199.213 639.755 229.792 639.277 242.713 637.362C253.282 635.967 279.563 624.202 300.142 588.309C305.525 583.922 307.081 571.679 270.231 557.8C255.475 550.821 221.297 539.615 202.633 550.622C200.439 551.955 198.101 553.782 196.065 556.005M185.539 639.755C143.7 639.755 128.455 630.184 126.062 625.398C109.312 610.084 104.327 603.065 103.928 601.47C101.056 599.555 97.1481 590.702 95.5528 586.514C82.1529 570.722 118.684 558 138.624 553.613C162.553 546.913 186.889 552.416 196.065 556.005M261.856 179.73C191.865 121.105 199.044 81.0247 206.82 78.0337C215.913 66.548 225.365 65.2718 228.954 66.0694C242.833 68.4624 261.457 53.5071 269.035 45.7303C291.049 22.2804 321.677 42.7392 334.24 55.8999C336.633 8.04275 364.948 1.46245 380.302 3.25708C420.023 24.7927 473.025 20.2064 494.561 15.2213C525.189 15.2213 531.65 42.3404 531.052 55.8999C527.223 66.9069 539.028 88.4026 545.409 97.7746C566.346 117.516 559.965 142.84 554.382 149.221C535.718 132.95 521.081 134.465 516.096 137.257C524.232 98.4925 470.632 67.864 449.096 61.2837C427.561 54.7033 416.195 55.8999 409.016 61.2837C409.016 37.3552 385.487 44.9325 373.722 51.7123C347.999 75.6408 338.427 79.8282 328.258 86.4086C308.636 97.8943 314.499 118.313 319.883 127.087C326.583 150.537 321.079 169.959 317.49 176.739C311.182 197.87 311.456 211.155 313.518 218.614M261.856 179.73L313.518 218.614M353.382 240.747C342.016 243.218 319.883 240.747 317.49 225.792C316.13 224.772 314.585 222.473 313.518 218.614M353.382 240.747C348.597 292.792 391.867 320.509 409.016 324.497C436.534 334.069 460.463 329.283 475.418 319.711C505.568 293.39 519.486 319.911 522.677 336.461C529.377 380.968 487.183 381.726 465.248 376.542C427.561 360.988 407.62 367.967 394.659 372.952C368.936 382.846 356.174 361.985 348.597 347.827C336.034 317.319 331.18 296.253 328.856 286.81C319.284 247.926 328.856 245.533 353.382 240.747ZM313.518 218.614L263.216 174.49M263.052 174.346L263.216 174.49M263.216 174.49C235.807 142.789 250.49 122.301 261.856 110.935C269.034 104.714 275.615 101.364 287.579 98.971C322.515 95.6211 333.243 79.23 334.24 71.4533V57.0962" stroke="#3C3939" stroke-width="3.5" shape-rendering="crispEdges"/>
</g>
<path d="M187.678 617.364L190.669 607.194" stroke="#3C3939" stroke-width="3"/>
<g filter="url(#filter2_d_520_5)">
<path d="M516.694 136.658C513.703 173.747 483.194 205.452 472.426 207.247C451.369 206.29 450.492 191.693 452.685 184.515C454.599 180.686 460.661 174.146 463.453 171.354C486.903 155.083 477.212 145.033 469.435 142.042C432.106 137.735 427.56 124.095 427.56 114.524C427.56 105.91 433.941 103.357 437.131 103.158C445.746 103.158 443.911 97.1759 441.917 94.1848C430.431 84.1349 419.185 89.9974 414.998 94.1848C408.298 105.192 412.206 118.712 414.998 124.096C425.544 144.435 444.908 150.417 463.453 146.828" stroke="#3C3939" stroke-width="3.5"/>
</g>
<path d="M95.5519 586.514L205.025 589.505M205.025 589.505L301.337 588.65M205.025 589.505L303.132 585.06" stroke="#3C3939" stroke-width="3"/>
<g filter="url(#filter3_d_520_5)">
<path d="M387.478 128.882C379.103 112.73 375.753 78.6319 429.353 71.4534C423.969 65.0725 406.022 62.48 387.478 71.4534C379.103 76.0397 359.003 92.6301 345.603 122.301C332.642 146.429 318.085 216.819 380.898 243.14C429.951 246.73 460.46 245.174 458.067 212.632C459.264 201.266 441.916 182.96 413.201 159.989C411.207 158.394 403.271 149.939 387.478 128.882Z" stroke="#3C3939" stroke-width="3.5" shape-rendering="crispEdges"/>
</g>
<path d="M231.945 493.193C240 494.408 246.734 494.137 252.284 492.787M252.284 492.787C281.686 485.632 276.213 455.778 261.258 441.148C239.243 419.612 231.945 430.38 237.329 439.353C283.272 465.675 266.442 485.943 252.284 492.787Z" stroke="#3C3939" stroke-width="3.5"/>
<path d="M153.579 494.39C111.724 494.39 108.282 467.274 114.16 450.921C114.496 449.986 115.017 449.134 115.636 448.357C132.875 426.75 142.987 400.882 144.465 390.346C144.582 389.517 144.748 388.697 145.014 387.904C150.506 371.582 148.835 367.858 150.588 355.006V270.658C150.588 183.918 72.8202 152.212 20.7757 148.025C-52.4455 135.103 -73.1436 143.838 -73.1436 148.025M-73.1436 148.025C-63.7284 185.686 -68.7843 174.724 -63.8274 215.352C-63.6642 216.689 -63.2282 218.021 -62.5284 219.172C-61.6457 220.624 -60.7414 222.033 -59.8167 223.399M-73.1436 148.025C-118.01 61.8821 -189.795 39.7482 -225.09 54.1052C-240.045 60.1886 -253.804 71.4533 -250.813 87.605M-78.5275 315.525C-51.608 315.525 -42.0366 317.917 -6.14382 299.373C44.7042 280.23 29.749 270.658 97.9452 263.48L29.7489 265.873C13.1128 265.873 -6.1915 263.383 -24.0902 254.62M-78.5275 315.525C-112.836 312.742 -132.053 289.12 -141.191 261.087M-78.5275 315.525C-76.8305 314.26 -75.239 312.998 -73.7418 311.738M-24.0902 254.62C-50.0773 269.766 -48.3217 290.349 -73.7418 311.738M-24.0902 254.62C-35.6463 248.962 -46.6165 240.689 -55.9044 228.783M-322 288.006C-283.919 242.895 -280.264 216.144 -255.404 204.944C-254.359 204.473 -253.387 203.868 -252.504 203.137C-228.219 183.036 -164.852 173.765 -146.936 235.225C-146.796 235.703 -146.693 236.21 -146.628 236.704C-145.541 244.937 -143.766 253.187 -141.191 261.087M-322 288.006C-271.152 280.23 -272.348 231.176 -232.866 223.399C-189.795 209.042 -146.44 238.075 -141.191 261.087M-322 288.006C-278.964 290.954 -264.396 302.616 -231.919 288.64C-230.97 288.232 -229.939 287.958 -228.918 287.798C-192.4 282.063 -178.502 220.383 -141.191 261.087M-250.813 87.605C-242.438 43.9355 -191.988 63.6765 -174.242 77.4354C-125.434 115.275 -127.494 160.226 -111.669 176.517C-111.124 177.079 -110.605 177.676 -110.171 178.327C-97.5401 197.265 -93.5014 202.816 -59.8167 223.399M-250.813 87.605C-248.649 79.8283 -242.438 73.7132 -225.09 75.6408C-209.04 77.424 -215.436 87.4762 -201.432 143.945C-201.256 144.653 -201.005 145.351 -200.671 145.999C-184.079 178.177 -137.568 219.846 -59.8167 223.399M-59.8167 223.399C-58.5498 225.272 -57.2446 227.065 -55.9044 228.783M-73.7418 311.738C-88.0989 320.031 -88.6971 297.578 -88.6971 282.024L-87.5007 256.301C-85.7061 231.176 -69.5543 228.783 -55.9044 228.783" stroke="#3C3939" stroke-width="4"/>
<path d="M215.793 491.997C243.072 497.261 248.097 484.22 244.507 480.631C237.329 471.657 220.38 483.023 215.793 491.997ZM215.793 491.997C197.249 505.157 178.704 501.568 170.927 493.193M170.927 493.193C165.663 473.093 141.615 478.836 141.615 484.818C142.811 496.782 163.748 495.586 170.927 493.193Z" stroke="#3C3939" stroke-width="3.5"/>
<path d="M142.213 398.077C173.32 391.497 170.927 413.631 162.552 424.399C134.436 454.908 121.276 475.845 142.213 486.015" stroke="#3C3939" stroke-width="3.5"/>
<defs>
<filter id="filter0_d_520_5" x="374.955" y="146.492" width="199.025" height="164.056" filterUnits="userSpaceOnUse" color-interpolation-filters="sRGB">
<feFlood flood-opacity="0" result="BackgroundImageFix"/>
<feColorMatrix in="SourceAlpha" type="matrix" values="0 0 0 0 0 0 0 0 0 0 0 0 0 0 0 0 0 0 127 0" result="hardAlpha"/>
<feOffset dy="2"/>
<feGaussianBlur stdDeviation="1.5"/>
<feComposite in2="hardAlpha" operator="out"/>
<feColorMatrix type="matrix" values="0 0 0 0 0.843137 0 0 0 0 0.0352941 0 0 0 0 0.0313726 0 0 0 1 0"/>
<feBlend mode="normal" in2="BackgroundImageFix" result="effect1_dropShadow_520_5"/>
<feBlend mode="normal" in="SourceGraphic" in2="effect1_dropShadow_520_5" result="shape"/>
</filter>
<filter id="filter1_d_520_5" x="-84.0267" y="0.250488" width="648.641" height="773.293" filterUnits="userSpaceOnUse" color-interpolation-filters="sRGB">
<feFlood flood-opacity="0" result="BackgroundImageFix"/>
<feColorMatrix in="SourceAlpha" type="matrix" values="0 0 0 0 0 0 0 0 0 0 0 0 0 0 0 0 0 0 127 0" result="hardAlpha"/>
<feOffset dy="2"/>
<feGaussianBlur stdDeviation="1.5"/>
<feComposite in2="hardAlpha" operator="out"/>
<feColorMatrix type="matrix" values="0 0 0 0 0.843137 0 0 0 0 0.0352941 0 0 0 0 0.0313726 0 0 0 1 0"/>
<feBlend mode="normal" in2="BackgroundImageFix" result="effect1_dropShadow_520_5"/>
<feBlend mode="normal" in="SourceGraphic" in2="effect1_dropShadow_520_5" result="shape"/>
</filter>
<filter id="filter2_d_520_5" x="407.548" y="85.8857" width="112.89" height="126.118" filterUnits="userSpaceOnUse" color-interpolation-filters="sRGB">
<feFlood flood-opacity="0" result="BackgroundImageFix"/>
<feColorMatrix in="SourceAlpha" type="matrix" values="0 0 0 0 0 0 0 0 0 0 0 0 0 0 0 0 0 0 127 0" result="hardAlpha"/>
<feOffset dy="1"/>
<feGaussianBlur stdDeviation="1"/>
<feComposite in2="hardAlpha" operator="out"/>
<feColorMatrix type="matrix" values="0 0 0 0 0.843137 0 0 0 0 0.0352941 0 0 0 0 0.0313726 0 0 0 1 0"/>
<feBlend mode="normal" in2="BackgroundImageFix" result="effect1_dropShadow_520_5"/>
<feBlend mode="normal" in="SourceGraphic" in2="effect1_dropShadow_520_5" result="shape"/>
</filter>
<filter id="filter3_d_520_5" x="329.525" y="62.905" width="133.423" height="188.333" filterUnits="userSpaceOnUse" color-interpolation-filters="sRGB">
<feFlood flood-opacity="0" result="BackgroundImageFix"/>
<feColorMatrix in="SourceAlpha" type="matrix" values="0 0 0 0 0 0 0 0 0 0 0 0 0 0 0 0 0 0 127 0" result="hardAlpha"/>
<feOffset dy="2"/>
<feGaussianBlur stdDeviation="1.5"/>
<feComposite in2="hardAlpha" operator="out"/>
<feColorMatrix type="matrix" values="0 0 0 0 0.843137 0 0 0 0 0.0352941 0 0 0 0 0.0313726 0 0 0 1 0"/>
<feBlend mode="normal" in2="BackgroundImageFix" result="effect1_dropShadow_520_5"/>
<feBlend mode="normal" in="SourceGraphic" in2="effect1_dropShadow_520_5" result="shape"/>
</filter>
</defs>
</svg>
